<svg width="73" height="34" viewBox="0 0 73 34" fill="none" xmlns="http://www.w3.org/2000/svg">
<g clip-path="url(#clip0_105_1224)">
<path d="M15.6804 0.8823C16.1666 -0.2941 17.8334 -0.2941 18.3196 0.8823C18.7276 1.8683 20.0332 2.07528 20.7255 1.26353C21.5518 0.294525 23.1366 0.809625 23.2356 2.0791C23.3185 3.14288 24.4966 3.74297 25.4061 3.18495C26.4911 2.51898 27.8392 3.4986 27.5413 4.7362C27.2914 5.77363 28.2264 6.7082 29.2638 6.45872C30.5014 6.1608 31.481 7.50848 30.8151 8.59393C30.257 9.50343 30.8571 10.6815 31.9209 10.7644C33.1904 10.8634 33.7051 12.4482 32.7369 13.2745C31.9247 13.9672 32.1313 15.2728 33.1177 15.6804C34.2941 16.1666 34.2941 17.8334 33.1177 18.3196C32.1317 18.7276 31.9247 20.0332 32.7365 20.7255C33.7055 21.5518 33.1904 23.1366 31.9209 23.2356C30.8571 23.3185 30.257 24.4966 30.8151 25.4061C31.481 26.4911 30.5014 27.8392 29.2638 27.5413C28.2264 27.2914 27.2918 28.2264 27.5413 29.2638C27.8392 30.5014 26.4915 31.481 25.4061 30.8151C24.4966 30.257 23.3185 30.8571 23.2356 31.9209C23.1366 33.1904 21.5518 33.7051 20.7255 32.7369C20.0328 31.9247 18.7272 32.1313 18.3196 33.1177C17.8334 34.2941 16.1666 34.2941 15.6804 33.1177C15.2724 32.1317 13.9668 31.9247 13.2745 32.7365C12.4482 33.7055 10.8634 33.1904 10.7644 31.9209C10.6815 30.8571 9.50343 30.257 8.59393 30.8151C7.5089 31.481 6.1608 30.5014 6.45872 29.2638C6.70862 28.2264 5.77363 27.2918 4.7362 27.5413C3.4986 27.8392 2.51898 26.4915 3.18495 25.4061C3.74297 24.4966 3.14288 23.3185 2.0791 23.2356C0.809625 23.1366 0.29495 21.5518 1.2631 20.7255C2.07527 20.0328 1.86873 18.7272 0.8823 18.3196C-0.2941 17.8334 -0.2941 16.1666 0.8823 15.6804C1.8683 15.2724 2.07528 13.9668 1.26353 13.2745C0.294525 12.4482 0.809625 10.8634 2.0791 10.7644C3.14288 10.6815 3.74297 9.50343 3.18495 8.59393C2.51898 7.5089 3.4986 6.1608 4.7362 6.45872C5.77363 6.70862 6.7082 5.77363 6.45872 4.7362C6.1608 3.4986 7.50848 2.51898 8.59393 3.18495C9.50343 3.74297 10.6815 3.14288 10.7644 2.0791C10.8634 0.809625 12.4482 0.29495 13.2745 1.2631C13.9672 2.07527 15.2728 1.86873 15.6804 0.8823Z" fill="#FE5639"/>
<path d="M11.1773 12.88H13.4873C14.6973 12.88 15.5873 13.16 16.1573 13.72C16.7373 14.28 17.0173 15.17 17.0173 16.38C17.0173 17.58 16.7573 18.48 16.2173 19.09C15.6873 19.7 14.8373 20 13.6673 20H11.1773V12.88ZM12.1073 13.69L12.1173 19.2H13.5473C14.4373 19.2 15.0873 18.98 15.4873 18.54C15.8873 18.1 16.0873 17.42 16.0873 16.49C16.0873 15.52 15.8973 14.81 15.4973 14.36C15.1073 13.92 14.4373 13.69 13.4973 13.69H12.1073ZM17.9583 12.88H20.8783C21.6083 12.88 22.1883 13.05 22.6183 13.38C23.0383 13.71 23.2583 14.23 23.2583 14.93C23.2583 16.37 22.4483 17.08 20.8283 17.08H18.8983V20H17.9583V12.88ZM18.8883 13.69V16.29H20.6983C21.2083 16.29 21.6083 16.2 21.8883 16.01C22.1683 15.82 22.3083 15.48 22.3083 14.99C22.3083 14.72 22.2683 14.49 22.1783 14.31C22.0883 14.13 21.9583 14 21.7783 13.91C21.6083 13.83 21.4283 13.77 21.2383 13.74C21.0583 13.71 20.8283 13.69 20.5683 13.69H18.8883Z" fill="white"/>
</g>
<g clip-path="url(#clip1_105_1224)">
<path d="M54.6804 0.8823C55.1666 -0.2941 56.8334 -0.2941 57.3196 0.8823C57.7276 1.8683 59.0332 2.07528 59.7255 1.26353C60.5518 0.294525 62.1366 0.809625 62.2356 2.0791C62.3185 3.14288 63.4966 3.74297 64.4061 3.18495C65.4911 2.51898 66.8392 3.4986 66.5413 4.7362C66.2914 5.77363 67.2264 6.7082 68.2638 6.45872C69.5014 6.1608 70.481 7.50848 69.8151 8.59393C69.257 9.50343 69.8571 10.6815 70.9209 10.7644C72.1904 10.8634 72.7051 12.4482 71.7369 13.2745C70.9247 13.9672 71.1313 15.2728 72.1177 15.6804C73.2941 16.1666 73.2941 17.8334 72.1177 18.3196C71.1317 18.7276 70.9247 20.0332 71.7365 20.7255C72.7055 21.5518 72.1904 23.1366 70.9209 23.2356C69.8571 23.3185 69.257 24.4966 69.8151 25.4061C70.481 26.4911 69.5014 27.8392 68.2638 27.5413C67.2264 27.2914 66.2918 28.2264 66.5413 29.2638C66.8392 30.5014 65.4915 31.481 64.4061 30.8151C63.4966 30.257 62.3185 30.8571 62.2356 31.9209C62.1366 33.1904 60.5518 33.7051 59.7255 32.7369C59.0328 31.9247 57.7272 32.1313 57.3196 33.1177C56.8334 34.2941 55.1666 34.2941 54.6804 33.1177C54.2724 32.1317 52.9668 31.9247 52.2745 32.7365C51.4482 33.7055 49.8634 33.1904 49.7644 31.9209C49.6815 30.8571 48.5034 30.257 47.5939 30.8151C46.5089 31.481 45.1608 30.5014 45.4587 29.2638C45.7086 28.2264 44.7736 27.2918 43.7362 27.5413C42.4986 27.8392 41.519 26.4915 42.185 25.4061C42.743 24.4966 42.1429 23.3185 41.0791 23.2356C39.8096 23.1366 39.2949 21.5518 40.2631 20.7255C41.0753 20.0328 40.8687 18.7272 39.8823 18.3196C38.7059 17.8334 38.7059 16.1666 39.8823 15.6804C40.8683 15.2724 41.0753 13.9668 40.2635 13.2745C39.2945 12.4482 39.8096 10.8634 41.0791 10.7644C42.1429 10.6815 42.743 9.50343 42.185 8.59393C41.519 7.5089 42.4986 6.1608 43.7362 6.45872C44.7736 6.70862 45.7082 5.77363 45.4587 4.7362C45.1608 3.4986 46.5085 2.51898 47.5939 3.18495C48.5034 3.74297 49.6815 3.14288 49.7644 2.0791C49.8634 0.809625 51.4482 0.29495 52.2745 1.2631C52.9672 2.07527 54.2728 1.86873 54.6804 0.8823Z" fill="#AD9058"/>
<path d="M51.9877 12.88H52.9377V17.37C52.9377 18.07 53.0877 18.57 53.3877 18.89C53.6877 19.21 54.1777 19.37 54.8577 19.37C55.5577 19.37 56.0477 19.21 56.3377 18.88C56.6277 18.56 56.7777 18.05 56.7777 17.37V12.88H57.7277V17.12C57.7277 18.16 57.5077 18.93 57.0777 19.42C56.6377 19.91 55.8977 20.15 54.8577 20.15C53.8377 20.15 53.1077 19.92 52.6577 19.44C52.2077 18.96 51.9877 18.22 51.9877 17.22V12.88ZM59.9345 12.88V20H58.9945V12.88H59.9345Z" fill="white"/>
</g>
<defs>
<clipPath id="clip0_105_1224">
<rect width="34" height="34" fill="white"/>
</clipPath>
<clipPath id="clip1_105_1224">
<rect width="34" height="34" fill="white" transform="translate(39)"/>
</clipPath>
</defs>
</svg>
