<svg width="180" height="40" viewBox="0 0 180 40" fill="none" xmlns="http://www.w3.org/2000/svg">
<path d="M14.0766 25.0167H10.3633V21.6667H14.1316C17.2616 21.6667 17.4699 25.0167 14.0766 25.0167ZM25.3399 20.555H30.3699C30.1749 17.6967 25.8199 17.26 25.3399 20.555ZM13.9999 15H10.3633V18.3333H14.3449C17.1333 18.3333 17.5733 15 13.9999 15ZM40.3633 8.33333V31.6667C40.3633 36.2683 36.6333 40 32.0299 40H8.69661C4.09328 40 0.363281 36.2683 0.363281 31.6667V8.33333C0.363281 3.73167 4.09328 0 8.69661 0H32.0299C36.6333 0 40.3633 3.73167 40.3633 8.33333ZM23.6966 13.3333H32.0299V11.6667H23.6966V13.3333ZM17.7766 19.3633C20.9549 17.74 20.8383 11.78 14.7549 11.69H7.02995V28.32H14.2149C21.7516 28.32 21.6233 20.7633 17.7766 19.3633ZM33.5883 20.3667C33.1316 17.4283 31.0416 15.45 27.6166 15.45C24.1266 15.45 22.0299 17.6833 22.0299 22.0283C22.0299 26.4133 24.3083 28.3333 27.7233 28.3333C31.1383 28.3333 32.8999 26.4417 33.3899 25H29.8716C28.6449 26.425 25.0499 25.8683 25.2599 22.745H33.6933C33.7099 21.6883 33.6733 20.93 33.5883 20.3667Z" fill="white"/>
<path d="M61.4728 8C62.5753 8 63.593 8.08481 64.5258 8.33922C65.4587 8.50883 66.2219 8.84806 66.9004 9.27208C67.5788 9.69611 68.0877 10.2898 68.4269 11.053C68.7661 11.8163 68.9357 12.7491 68.9357 13.7668C68.9357 14.9541 68.6813 15.9717 68.0877 16.735C67.5788 17.4982 66.7308 18.1767 65.7131 18.6855C67.1548 19.1095 68.2573 19.8728 68.9357 20.8905C69.6142 21.9081 70.0382 23.1802 70.0382 24.6219C70.0382 25.8092 69.7838 26.8269 69.3597 27.6749C68.9357 28.523 68.2573 29.2862 67.494 29.7951C66.7308 30.3039 65.7979 30.7279 64.7802 30.9823C63.7626 31.2367 62.7449 31.4064 61.7272 31.4064H50.3633V8H61.4728ZM60.7944 17.4982C61.7272 17.4982 62.4905 17.2438 63.0841 16.8198C63.6778 16.3958 63.9322 15.6325 63.9322 14.6996C63.9322 14.1908 63.8474 13.682 63.6778 13.3428C63.5082 13.0035 63.2537 12.7491 62.9145 12.4947C62.5753 12.3251 62.2361 12.1555 61.812 12.0707C61.388 11.9859 60.964 11.9859 60.4552 11.9859H55.5364V17.4982H60.7944ZM61.0488 27.5053C61.5576 27.5053 62.0665 27.4205 62.4905 27.3357C62.9145 27.2509 63.3385 27.0813 63.6778 26.8269C64.017 26.5724 64.2714 26.318 64.5258 25.894C64.6954 25.47 64.865 24.9611 64.865 24.3675C64.865 23.1802 64.5258 22.3322 63.8474 21.7385C63.1689 21.2297 62.2361 20.9753 61.1336 20.9753H55.5364V27.5053H61.0488ZM77.4163 27.4205C78.0947 28.0989 79.1124 28.4382 80.4693 28.4382C81.4021 28.4382 82.2502 28.1837 82.9287 27.7597C83.6071 27.2509 84.0311 26.7421 84.2007 26.2332H88.3562C87.6778 28.2686 86.6601 29.7102 85.3032 30.6431C83.9463 31.4912 82.335 32 80.3845 32C79.0276 32 77.8403 31.7456 76.7378 31.3216C75.6354 30.8975 74.7873 30.3039 74.0241 29.4558C73.2608 28.6926 72.6672 27.7597 72.3279 26.6572C71.9039 25.5548 71.7343 24.3675 71.7343 23.0106C71.7343 21.7385 71.9039 20.5512 72.3279 19.4488C72.752 18.3463 73.3456 17.4134 74.1089 16.5654C74.8721 15.8021 75.805 15.1237 76.8226 14.6996C77.9251 14.2756 79.0276 14.0212 80.3845 14.0212C81.8262 14.0212 83.0983 14.2756 84.2007 14.8693C85.3032 15.4629 86.1513 16.1413 86.8297 17.159C87.5082 18.0919 88.017 19.1943 88.3562 20.3816C88.5258 21.5689 88.6106 22.7562 88.5258 24.1131H76.229C76.229 25.47 76.7378 26.7421 77.4163 27.4205ZM82.759 18.5159C82.1654 17.9223 81.2325 17.583 80.1301 17.583C79.3668 17.583 78.7732 17.7527 78.2643 18.0071C77.7555 18.2615 77.4163 18.6007 77.0771 18.9399C76.7378 19.2792 76.5682 19.7032 76.4834 20.1272C76.3986 20.5512 76.3138 20.8905 76.3138 21.2297H83.9463C83.7767 19.9576 83.3527 19.1095 82.759 18.5159ZM95.1407 8V16.8198H95.2255C95.8191 15.8021 96.5824 15.1237 97.5152 14.6996C98.4481 14.2756 99.2961 14.0212 100.229 14.0212C101.501 14.0212 102.519 14.1908 103.282 14.53C104.045 14.8693 104.724 15.3781 105.148 15.9717C105.572 16.5654 105.911 17.3286 106.081 18.1767C106.25 19.0247 106.335 19.9576 106.335 21.0601V31.4912H101.671V21.9081C101.671 20.4664 101.416 19.4488 100.992 18.7703C100.568 18.0919 99.805 17.7527 98.7025 17.7527C97.4304 17.7527 96.4976 18.1767 95.9887 18.8551C95.3951 19.6184 95.1407 20.8905 95.1407 22.5866V31.4912H90.4764V8H95.1407ZM109.727 16.9894C110.236 16.2261 110.83 15.7173 111.593 15.2085C112.356 14.7845 113.204 14.4452 114.137 14.2756C115.07 14.106 116.003 14.0212 116.936 14.0212C117.784 14.0212 118.632 14.106 119.565 14.1908C120.413 14.2756 121.261 14.53 121.939 14.8693C122.702 15.2085 123.211 15.7173 123.72 16.311C124.144 16.9046 124.399 17.7527 124.399 18.7703V27.6749C124.399 28.4382 124.483 29.2014 124.568 29.8799C124.653 30.5583 124.907 31.1519 125.162 31.4912H120.413C120.243 31.3216 120.158 30.9823 120.074 30.7279C119.989 30.4735 119.989 30.1343 119.989 29.8799C119.225 30.6431 118.377 31.1519 117.36 31.4912C116.342 31.8304 115.324 31.9152 114.307 31.9152C113.459 31.9152 112.78 31.8304 112.017 31.576C111.339 31.4064 110.745 31.0671 110.151 30.6431C109.642 30.2191 109.218 29.7102 108.879 29.0318C108.625 28.3534 108.455 27.6749 108.455 26.7421C108.455 25.8092 108.625 24.9611 108.964 24.3675C109.303 23.7739 109.727 23.265 110.236 22.841C110.745 22.5018 111.423 22.1625 112.102 21.9929C112.78 21.8233 113.459 21.6537 114.222 21.5689L116.257 21.3145C116.936 21.2297 117.529 21.1449 118.038 21.0601C118.547 20.8905 118.971 20.7208 119.31 20.4664C119.649 20.212 119.734 19.8728 119.734 19.364C119.734 18.8551 119.649 18.4311 119.48 18.1767C119.31 17.9223 119.056 17.6678 118.801 17.4982C118.547 17.3286 118.208 17.2438 117.869 17.159C117.529 17.0742 117.105 17.0742 116.681 17.0742C115.748 17.0742 115.07 17.2438 114.561 17.6678C114.052 18.0919 113.713 18.7703 113.628 19.6184H108.964C108.964 18.6007 109.303 17.6678 109.727 16.9894ZM118.971 23.6042C118.717 23.689 118.377 23.7739 118.038 23.8587C117.699 23.9435 117.36 23.9435 116.936 24.0283C116.596 24.1131 116.172 24.1131 115.833 24.1979L114.816 24.4523C114.476 24.5371 114.137 24.7067 113.968 24.8763C113.713 25.0459 113.543 25.3004 113.374 25.5548C113.119 25.894 113.119 26.2332 113.119 26.6572C113.119 27.0813 113.204 27.4205 113.374 27.6749C113.543 27.9293 113.713 28.1837 113.968 28.3534C114.222 28.523 114.561 28.6078 114.9 28.6926C115.24 28.7774 115.579 28.7774 116.003 28.7774C116.936 28.7774 117.614 28.6078 118.123 28.3534C118.632 28.0141 118.971 27.6749 119.225 27.2509C119.48 26.8269 119.649 26.4028 119.649 25.9788C119.734 25.5548 119.734 25.2155 119.734 24.9611V23.1802C119.48 23.3498 119.225 23.5194 118.971 23.6042ZM131.437 14.4452V16.8198H131.522C132.116 15.8021 132.879 15.1237 133.812 14.6996C134.745 14.2756 135.763 14.0212 136.695 14.0212C137.968 14.0212 138.985 14.1908 139.748 14.53C140.596 14.8693 141.19 15.3781 141.614 15.9717C142.038 16.5654 142.377 17.3286 142.632 18.1767C142.801 19.0247 142.886 19.9576 142.886 21.0601V31.4912H138.222V21.9081C138.222 20.4664 137.968 19.4488 137.543 18.7703C137.119 18.0919 136.356 17.6678 135.169 17.6678C133.897 17.6678 132.964 18.1767 132.37 18.9399C131.777 19.7032 131.522 20.9753 131.522 22.6714V31.576H126.858V14.4452H131.437ZM153.317 17.4982C152.554 17.4982 151.96 17.6678 151.452 18.0071C150.943 18.3463 150.519 18.7703 150.18 19.364C149.84 19.8728 149.671 20.4664 149.501 21.1449C149.331 21.8233 149.331 22.417 149.331 23.0954C149.331 23.689 149.416 24.3675 149.501 24.9611C149.671 25.6396 149.84 26.1484 150.18 26.6572C150.519 27.1661 150.858 27.5901 151.367 27.9293C151.876 28.2686 152.469 28.4382 153.233 28.4382C154.335 28.4382 155.183 28.0989 155.862 27.5053C156.455 26.9117 156.879 26.0636 156.964 24.9611H161.459C161.119 27.2509 160.271 28.947 158.83 30.1343C157.388 31.3216 155.522 31.9152 153.233 31.9152C151.96 31.9152 150.773 31.6608 149.756 31.2367C148.653 30.8127 147.805 30.2191 147.042 29.4558C146.278 28.6926 145.685 27.7597 145.261 26.7421C144.837 25.6396 144.667 24.5371 144.667 23.265C144.667 21.9081 144.837 20.7208 145.261 19.6184C145.685 18.5159 146.194 17.4982 146.957 16.6502C147.72 15.8021 148.653 15.2085 149.671 14.6996C150.773 14.2756 151.96 14.0212 153.317 14.0212C154.335 14.0212 155.268 14.1908 156.201 14.4452C157.134 14.6996 157.982 15.1237 158.66 15.6325C159.423 16.1413 160.017 16.8198 160.441 17.6678C160.865 18.4311 161.119 19.4488 161.204 20.5512H156.625C156.455 18.5159 155.353 17.4982 153.317 17.4982ZM75.2961 9.61131H84.7944V11.9011H75.2961V9.61131ZM168.498 27.4205C169.176 28.0989 170.278 28.4382 171.551 28.4382C172.483 28.4382 173.331 28.1837 174.01 27.7597C174.688 27.2509 175.112 26.7421 175.282 26.2332H179.353C178.674 28.2686 177.657 29.7102 176.3 30.6431C174.943 31.4912 173.331 32 171.381 32C170.024 32 168.837 31.7456 167.734 31.3216C166.632 30.8975 165.784 30.3039 165.021 29.4558C164.257 28.6926 163.664 27.7597 163.324 26.6572C162.9 25.5548 162.731 24.3675 162.731 23.0106C162.731 21.7385 162.9 20.5512 163.324 19.4488C163.748 18.3463 164.342 17.4134 165.105 16.5654C165.869 15.8021 166.801 15.1237 167.819 14.6996C168.922 14.2756 170.109 14.0212 171.381 14.0212C172.823 14.0212 174.095 14.2756 175.112 14.8693C176.215 15.4629 177.063 16.1413 177.741 17.159C178.42 18.0919 178.929 19.1943 179.268 20.3816C179.607 21.5689 179.692 22.841 179.607 24.1979H167.31C167.31 25.47 167.819 26.7421 168.498 27.4205ZM173.925 18.5159C173.331 17.9223 172.399 17.583 171.296 17.583C170.533 17.583 169.939 17.7527 169.43 18.0071C168.922 18.2615 168.498 18.6007 168.243 18.9399C167.989 19.2792 167.734 19.7032 167.649 20.1272C167.565 20.5512 167.48 20.8905 167.48 21.2297H175.112C174.858 19.9576 174.434 19.1095 173.925 18.5159Z" fill="white"/>
</svg>
