<svg width="1896" height="328" viewBox="0 0 1896 328" fill="none" xmlns="http://www.w3.org/2000/svg">
<path fill-rule="evenodd" clip-rule="evenodd" d="M411.762 2.06068C429.288 2.06071 446.061 4.11619 462.08 8.22714C469.759 10.181 477.021 12.6474 483.864 15.6226H536.276V59.3322C546.631 43.5051 556.421 32.106 565.646 25.1343C582.214 12.6984 603.206 6.48004 628.622 6.48004C660.44 6.48007 686.421 14.8654 706.566 31.6348C726.897 48.216 737.063 75.8193 737.063 114.446L736.735 322.105H654.276L654.604 134.513C654.604 118.309 652.438 105.873 648.108 97.2055C640.201 81.3781 625.139 73.4638 602.923 73.4638C575.624 73.4639 556.891 85.0518 546.725 108.228C546.361 109.072 546.012 109.934 545.673 110.811L545.484 216.544V322.105H458.427L458.736 280.905C453.857 289.63 447.579 297.402 439.9 304.22C431.41 311.62 421.21 317.444 409.297 321.692C397.385 325.803 383.624 327.858 368.014 327.858C347.887 327.858 329.95 324.365 314.204 317.376C298.458 310.25 285.997 299.767 276.824 285.926C267.787 271.948 263.268 254.546 263.268 233.717C263.268 216.176 266.486 201.445 272.921 189.523C279.357 177.601 288.12 168.009 299.211 160.746C310.301 153.483 322.898 148.002 337.001 144.302C351.241 140.602 366.166 137.998 381.775 136.491C400.123 134.573 414.911 132.791 426.138 131.146C437.366 129.365 445.513 126.762 450.579 123.336C455.645 119.91 458.179 114.84 458.179 108.125V106.891C458.179 93.8738 454.071 83.8015 445.856 76.6756C437.778 69.5501 426.276 65.9876 411.351 65.9875C395.605 65.9875 383.076 69.4812 373.765 76.4701C364.454 83.3215 358.955 91.1024 355.943 101.517H306.638L232.414 233.833C208.812 275.967 190.127 302.063 176.36 312.121C162.592 322.315 135.056 327.411 93.7532 327.411C85.4489 327.411 78.7822 327.344 73.756 327.207C68.7296 327.207 52.3545 326.094 42.3618 325.097V266.656L54.163 267.065C63.3414 267.336 72.0837 267.131 80.3879 266.452C88.6916 265.772 95.6841 264.209 101.366 261.763C106.829 259.453 111.856 254.627 116.446 247.288C121.253 239.95 123.22 235.464 122.347 233.833L0 15.2788H103.914L181.932 179.193L255.688 15.2788H341.103C342.456 14.6932 343.826 14.1222 345.216 13.5717C364.386 5.89763 386.568 2.06068 411.762 2.06068ZM458.687 175.613C455.958 177.367 452.229 178.991 447.499 180.479C442.843 181.849 437.572 183.151 431.684 184.384C425.796 185.48 419.908 186.508 414.02 187.467C408.133 188.289 402.793 189.044 398 189.729C387.732 191.236 378.763 193.634 371.096 196.923C363.428 200.211 357.471 204.666 353.226 210.284C348.982 215.765 346.859 222.617 346.859 230.839C346.859 242.761 351.173 251.874 359.799 258.177C368.562 264.343 379.653 267.427 393.072 267.427C405.943 267.427 417.307 264.891 427.166 259.821C437.024 254.614 444.76 247.626 450.374 238.856C455.415 230.981 458.19 222.166 458.705 212.414L458.687 175.613Z" fill="#080808"/>
<path fill-rule="evenodd" clip-rule="evenodd" d="M1386.6 0C1404.13 3.0685e-05 1420.91 2.05483 1436.94 6.16451C1443.54 7.84233 1449.83 9.89783 1455.82 12.329H1532.37V57.254C1542.35 41.243 1551.77 29.8469 1560.62 23.0658C1576.26 11.0104 1596.5 4.98322 1621.37 4.98322C1644.91 4.98329 1663.94 10.163 1678.44 20.523C1690.12 30.1295 1698.97 42.4676 1705 57.5364C1715.55 39.4538 1728.64 26.1742 1744.27 17.6979C1760.85 9.22156 1779.31 4.98322 1799.65 4.98322C1813.21 4.98325 1826.59 7.62055 1839.78 12.8948C1852.96 18.1691 1864.92 27.3981 1875.66 40.5835C1884.32 51.3201 1890.16 64.5058 1893.17 80.1396C1895.06 90.4997 1896 105.663 1896 125.629L1895.44 322.105H1812.93V123.652C1812.93 111.973 1811.05 102.367 1807.28 94.8322C1800.13 80.5166 1786.94 73.3588 1767.73 73.3587C1745.5 73.3587 1730.15 82.5889 1721.67 101.048C1717.34 110.843 1715.17 122.616 1715.17 136.366V322.105H1634.08V136.366C1634.08 118.095 1632.2 104.815 1628.43 96.5277C1621.65 81.647 1608.37 74.207 1588.59 74.2069C1565.61 74.2069 1550.17 81.6469 1542.25 96.5277C1537.92 105.004 1535.76 117.624 1535.76 134.388V322.105H1437.56V275.969H1435.09C1430.02 285.832 1423.24 294.531 1414.75 302.066C1406.26 309.464 1396.05 315.286 1384.13 319.532C1372.21 323.642 1358.45 325.697 1342.83 325.697C1322.69 325.697 1304.75 322.204 1288.99 315.217C1273.24 308.093 1260.77 297.614 1251.59 283.778C1247.92 278.106 1245 271.87 1242.82 265.07C1239.5 269.764 1235.71 274.477 1231.46 279.207C1205.09 309.156 1168.17 324.131 1120.7 324.131C1081.52 324.13 1046.95 311.51 1017.01 286.27C1016.82 286.111 1016.36 285.685 1016.18 285.524V322.105H980.276C941.85 322.105 915.101 318.701 901.162 304.198C892.12 294.968 887.6 280.746 887.6 261.533V71.9466H844.653V1.02742H1017.29V46.2348C1044.41 17.7919 1079.54 3.57021 1122.68 3.57016C1148.29 3.57016 1171.37 8.3738 1191.9 17.9803C1212.43 27.5868 1229.38 42.7504 1242.76 63.4701C1246.47 69.1006 1249.78 75.0093 1252.69 81.1943C1257.85 67.2917 1265.19 53.4672 1273.38 43.9745C1285.43 29.8645 1300.98 19.0413 1320.02 11.5071C1339.2 3.83551 1361.39 0 1386.6 0ZM1433.65 173.431C1430.91 175.212 1427.15 176.856 1422.35 178.363C1417.7 179.733 1412.42 181.034 1406.53 182.267C1400.64 183.363 1394.75 184.39 1388.86 185.349C1382.97 186.171 1377.62 186.925 1372.83 187.61C1362.56 189.117 1353.58 191.514 1345.91 194.801C1338.24 198.089 1332.28 202.541 1328.04 208.158C1323.79 213.637 1321.67 220.487 1321.67 228.706C1321.67 240.625 1325.98 249.735 1334.61 256.037C1343.38 262.201 1354.47 265.283 1367.9 265.283C1380.77 265.283 1392.14 262.749 1402.01 257.68C1411.87 252.475 1419.61 245.489 1425.23 236.721C1430.85 227.954 1433.65 218.022 1433.65 206.926V173.431ZM966.712 236.106C966.712 248.726 968.878 255.223 972.08 258.425C975.007 261.181 982.736 262.911 996.56 263.189C980.241 238.441 972.08 205.072 972.08 163.081C972.08 124.701 981.553 95.7603 996.91 71.9466H966.712V236.106ZM1057.97 188.072C1059.1 218.963 1064 234.847 1082.27 247.279C1093.39 255.001 1106.76 258.863 1122.39 258.863C1138.97 258.863 1152.44 254.154 1162.8 244.736C1168.45 239.65 1173.44 232.586 1177.77 223.545H1238.27C1239.1 209.81 1242.13 197.987 1247.34 188.072H1057.97ZM1386.19 63.9064C1370.43 63.9064 1357.9 67.3993 1348.58 74.3861C1339.27 81.2354 1335.9 90.0733 1332.89 100.484H1260.18C1262.82 108.904 1264.83 117.756 1266.21 127.042C1267.55 136.214 1268.38 148.006 1268.7 162.417C1270.4 161.094 1272.16 159.832 1273.99 158.635C1285.09 151.375 1297.69 145.895 1311.8 142.197C1326.05 138.498 1340.98 135.895 1356.6 134.388C1374.95 132.471 1389.75 130.689 1400.98 129.046C1412.22 127.265 1420.37 124.662 1425.44 121.237C1430.5 117.812 1433.04 112.744 1433.04 106.032V104.799C1433.04 91.7849 1428.93 81.7153 1420.71 74.5916C1412.63 67.4683 1401.12 63.9064 1386.19 63.9064ZM1122.68 69.9687C1104.03 69.9687 1089.52 75.8081 1079.16 87.4864C1068.99 99.1646 1062.59 114.987 1059.95 134.953H1185.12C1183.8 113.668 1177.3 97.5633 1165.62 86.6382C1154.13 75.525 1139.82 69.9687 1122.68 69.9687Z" fill="#080808"/>
</svg>
