<svg width="138" height="40" viewBox="0 0 138 40" fill="none" xmlns="http://www.w3.org/2000/svg">
<g clip-path="url(#clip0_167_223)">
<path fill-rule="evenodd" clip-rule="evenodd" d="M28.8272 3.45025L37.0513 11.6733C41.6502 16.2723 41.6502 23.7282 37.0513 28.3272L28.8272 36.5513C24.2282 41.1502 16.7723 41.1502 12.1733 36.5513L3.94925 28.3272C-0.64975 23.7282 -0.64975 16.2723 3.94925 11.6733L12.1733 3.44925C16.7723 -1.14975 24.2282 -1.14975 28.8272 3.44925V3.45025ZM6.00025 24.7922V15.2063C6.00025 9.84625 10.3462 5.50025 15.7072 5.50025H25.2932C30.6542 5.50025 35.0003 9.84625 35.0003 15.2072V24.7932C35.0003 30.1542 30.6542 34.5003 25.2932 34.5003H15.7072C10.3462 34.5003 6.00025 30.1532 6.00025 24.7922Z" fill="white"/>
<path d="M36.9871 1.00014C37.4211 1.00114 37.8481 1.11214 38.2271 1.32214C38.6241 1.53214 38.9511 1.85314 39.1671 2.24514C39.3845 2.62584 39.4989 3.05669 39.4989 3.49514C39.4989 3.93358 39.3845 4.36443 39.1671 4.74514C38.9501 5.13514 38.6271 5.45714 38.2331 5.67314C37.8507 5.88776 37.4195 6.00037 36.9811 6.00014C36.5534 5.99177 36.1346 5.87735 35.7621 5.66714C35.3714 5.45154 35.0497 5.12982 34.8341 4.73914C34.614 4.35932 34.498 3.92812 34.498 3.48914C34.498 3.05015 34.614 2.61895 34.8341 2.23914C35.0471 1.84514 35.3691 1.51914 35.7621 1.30014C36.1387 1.0989 36.56 0.995729 36.9871 1.00014ZM36.9871 1.41014C36.6254 1.41301 36.2702 1.50653 35.9541 1.68214C35.6241 1.85914 35.3521 2.12614 35.1691 2.45214C34.9872 2.76949 34.8916 3.12888 34.8916 3.49464C34.8916 3.86039 34.9872 4.21978 35.1691 4.53714C35.3491 4.86214 35.6201 5.12914 35.9491 5.30714C36.2665 5.48982 36.6263 5.58597 36.9926 5.58597C37.3588 5.58597 37.7186 5.48982 38.0361 5.30714C38.3641 5.12914 38.6351 4.86214 38.8161 4.53714C38.9979 4.21978 39.0936 3.86039 39.0936 3.49464C39.0936 3.12888 38.9979 2.76949 38.8161 2.45214C38.6342 2.12475 38.3611 1.85724 38.0301 1.68214C37.7109 1.50491 37.3521 1.41134 36.9871 1.41014ZM35.9871 4.78314V2.09214H36.9151C37.1481 2.08114 37.3821 2.10514 37.6071 2.16214C37.7471 2.20914 37.8671 2.30214 37.9471 2.42514C38.0137 2.52225 38.0553 2.63436 38.068 2.75145C38.0807 2.86854 38.0643 2.98696 38.0201 3.09614C37.9833 3.18453 37.9288 3.2645 37.8601 3.33114C37.715 3.48044 37.5181 3.56817 37.3101 3.57614C37.395 3.60922 37.4732 3.65732 37.5411 3.71814C37.6941 3.88614 37.8291 4.06814 37.9421 4.26414L38.2721 4.81014H37.7221L37.4821 4.38414C37.3684 4.14955 37.2136 3.9372 37.0251 3.75714C36.9209 3.68969 36.798 3.65712 36.6741 3.66414H36.4161V4.81014L35.9871 4.78314ZM36.4211 3.26514H36.9711C37.1506 3.28392 37.3313 3.24392 37.4861 3.15114C37.5318 3.11702 37.5687 3.07241 37.5935 3.02108C37.6184 2.96974 37.6306 2.91317 37.6291 2.85614C37.6319 2.77889 37.6067 2.70323 37.5581 2.64314C37.5134 2.57868 37.4503 2.52919 37.3771 2.50114C37.2342 2.46024 37.0854 2.44368 36.9371 2.45214H36.4371L36.4211 3.26514Z" fill="white"/>
</g>
<path d="M115.862 10.11H113.538V12.593H115.863V10.109L115.862 10.11ZM57.043 10.11H50.25V29.006H56.117C59.261 29.006 65.844 28.791 65.844 19.505C65.844 10.219 58.947 10.109 57.044 10.109L57.043 10.11ZM56.198 26.873H52.733V12.243H56.911C60.054 12.243 63.202 13.837 63.202 19.558C63.202 24.604 60.955 26.873 56.198 26.873ZM74.38 14.753C73.217 14.753 71.287 15.103 69.94 17.183H69.859V15.295H67.693V34H70.017V27.035C71.206 29.41 73.903 29.545 74.431 29.545C77.497 29.545 80.431 27.465 80.431 22.147C80.431 16.829 77.681 14.749 74.379 14.749L74.38 14.753ZM74.01 27.872C72.239 27.872 69.859 26.44 69.859 22.204C69.859 17.021 72.685 16.426 73.877 16.426C76.519 16.426 77.973 18.612 77.973 22.147C77.973 26.519 75.885 27.872 74.01 27.872ZM84.74 17.937V15.291H82.416V29.006H84.741V21.96C84.741 21.718 84.741 21.473 84.767 21.232C84.977 17.776 86.803 16.562 89.922 16.427V14.753L89.235 14.779C87.357 14.858 85.431 15.913 84.796 17.937H84.74ZM96.63 14.753C91.74 14.753 90.021 18.506 90.021 22.151C90.021 25.795 91.741 29.549 96.631 29.549C101.519 29.549 103.239 25.795 103.239 22.151C103.239 18.506 101.519 14.753 96.63 14.753ZM96.63 27.872C95.6 27.872 92.479 27.631 92.479 22.121C92.479 16.611 95.597 16.369 96.63 16.369C97.663 16.369 100.781 16.614 100.781 22.121C100.781 27.627 97.663 27.871 96.631 27.871L96.63 27.872ZM106.147 13.43V15.29H103.663V16.964H106.147V29.005H108.471V16.965H111.405V15.29H108.471V13.644C108.471 13.079 108.497 11.756 109.767 11.756C110.007 11.756 110.268 11.704 111.405 11.783V10.109C111.01 10.083 110.187 10 109.685 10C107.279 10 106.143 11.052 106.143 13.43H106.147ZM115.862 15.291H113.538V29.006H115.863L115.862 15.291ZM121.944 10.11H119.619V29.006H121.944V10.11ZM131.169 27.872C128.102 27.872 126.914 25.038 126.914 22.69H137.25C137.25 22.475 137.224 22.23 137.224 22.015C137.091 19.045 136.379 14.753 131.014 14.753C124.804 14.753 124.46 20.315 124.46 22.203C124.46 23.447 124.593 29.545 131.254 29.545C135.375 29.545 136.778 26.979 137.121 25.038H134.899C134.608 26.549 133.419 27.872 131.172 27.872H131.169ZM131.062 16.426C134.102 16.426 134.708 19.181 134.789 21.016H126.914C126.914 19.29 127.626 16.426 131.065 16.426H131.062Z" fill="white"/>
<defs>
<clipPath id="clip0_167_223">
<rect width="40" height="40" fill="white" transform="translate(0.5)"/>
</clipPath>
</defs>
</svg>
