<svg width="101" height="24" viewBox="0 0 101 24" fill="none" xmlns="http://www.w3.org/2000/svg">
<path fill-rule="evenodd" clip-rule="evenodd" d="M21.9313 0H2.0501C1.50638 0 0.98493 0.216192 0.600461 0.601016C0.215992 0.985843 0 1.50778 0 2.052V21.948C0 22.4922 0.215992 23.0142 0.600461 23.399C0.98493 23.7838 1.50638 24 2.0501 24H21.9313C22.4744 23.999 22.9949 23.7824 23.3786 23.3977C23.7623 23.013 23.9778 22.4916 23.9778 21.948V2.052C23.9778 1.5084 23.7623 0.98701 23.3786 0.602287C22.9949 0.217566 22.4744 0.000952679 21.9313 0ZM22.3869 15.4356C22.3856 17.2831 21.6514 19.0545 20.3456 20.3603C19.0399 21.6661 17.2695 22.3995 15.4237 22.3992H8.56966C6.72419 22.3992 4.95427 21.6655 3.64915 20.3595C2.34403 19.0536 1.61059 17.2822 1.61011 15.435V8.5608C1.61003 7.64605 1.79 6.74024 2.13974 5.89512C2.48947 5.04999 3.00213 4.28211 3.64841 3.63534C4.2947 2.98857 5.06195 2.47558 5.90635 2.12566C6.75076 1.77574 7.65576 1.59576 8.56966 1.596H15.4387C17.2845 1.59632 19.0546 2.33008 20.3601 3.63604C21.6657 4.942 22.3998 6.71333 22.4013 8.5608L22.3857 15.435L22.3869 15.4356Z" fill="#16171B"/>
<path fill-rule="evenodd" clip-rule="evenodd" d="M26.0685 2.26988V0.655281H26.6248C26.7645 0.648682 26.9048 0.663081 27.0396 0.697282C27.1236 0.725482 27.1955 0.781282 27.2434 0.855081C27.2834 0.913349 27.3083 0.980617 27.3159 1.05087C27.3236 1.12112 27.3137 1.19218 27.2872 1.25768C27.2652 1.31072 27.2325 1.3587 27.1913 1.39868C27.1044 1.48826 26.9863 1.5409 26.8616 1.54568C26.9125 1.56552 26.9594 1.59438 27.0001 1.63088C27.0918 1.73168 27.1727 1.84088 27.2405 1.95848L27.4383 2.28608H27.1086L26.9647 2.03048C26.8965 1.88973 26.8038 1.76232 26.6908 1.65428C26.6283 1.61381 26.5546 1.59427 26.4804 1.59848H26.3257V2.28608L26.0685 2.26988ZM26.3287 1.35908H26.6584C26.766 1.37036 26.8743 1.34635 26.9671 1.29068C26.9945 1.27021 27.0166 1.24345 27.0315 1.21265C27.0464 1.18184 27.0538 1.1479 27.0528 1.11368C27.0545 1.06734 27.0394 1.02194 27.0103 0.985882C26.9835 0.947207 26.9457 0.917515 26.9018 0.900683C26.8161 0.876144 26.727 0.866206 26.638 0.871282H26.3383L26.3287 1.35908Z" fill="#16171B"/>
<path fill-rule="evenodd" clip-rule="evenodd" d="M26.668 8.22648e-05C26.9281 0.000682002 27.1841 0.067282 27.4113 0.193282C27.6493 0.31928 27.8453 0.511881 27.9748 0.747081C28.1051 0.975501 28.1737 1.23402 28.1737 1.49708C28.1737 1.76015 28.1051 2.01866 27.9748 2.24708C27.8447 2.48108 27.6511 2.67428 27.4149 2.80388C27.1857 2.93266 26.9272 3.00022 26.6644 3.00008C26.408 2.99509 26.1569 2.92643 25.9337 2.80028C25.6995 2.67093 25.5066 2.47789 25.3774 2.24348C25.2454 2.01559 25.1759 1.75687 25.1759 1.49348C25.1759 1.23009 25.2454 0.971369 25.3774 0.743483C25.5051 0.50708 25.6981 0.311481 25.9337 0.18008C26.1595 0.0593394 26.412 -0.00256348 26.668 8.22648e-05ZM26.668 0.24608C26.4512 0.247808 26.2383 0.303918 26.0488 0.409281C25.8509 0.515482 25.6879 0.67568 25.5782 0.871282C25.4692 1.06169 25.4118 1.27733 25.4118 1.49678C25.4118 1.71623 25.4692 1.93187 25.5782 2.12228C25.6861 2.31728 25.8485 2.47748 26.0458 2.58428C26.236 2.69395 26.4517 2.75167 26.6713 2.75167C26.8908 2.75167 27.1065 2.69395 27.2968 2.58428C27.4934 2.47748 27.6559 2.31728 27.7644 2.12228C27.8734 1.93187 27.9307 1.71623 27.9307 1.49678C27.9307 1.27733 27.8734 1.06169 27.7644 0.871282C27.6553 0.674847 27.4917 0.514343 27.2932 0.409281C27.1019 0.302944 26.8868 0.246802 26.668 0.24608Z" fill="#16171B"/>
<path d="M82.9522 5.99594H84.7083L84.7091 5.99519V7.86719H82.9522V5.99594Z" fill="#16171B"/>
<path fill-rule="evenodd" clip-rule="evenodd" d="M35.1304 5.99594H40.2634L40.2641 5.99519C41.7021 5.99519 46.9136 6.07809 46.9136 13.0762C46.9136 20.0744 41.9393 20.2364 39.5637 20.2364H35.1304V5.99594ZM37.0066 18.6289H39.6249C43.2194 18.6289 44.9172 16.919 44.9172 13.1162C44.9172 8.8047 42.5386 7.60342 40.1636 7.60342H37.0066V18.6289Z" fill="#16171B"/>
<path fill-rule="evenodd" clip-rule="evenodd" d="M50.0086 11.3263C51.0265 9.75878 52.4848 9.49501 53.3636 9.49501L53.3628 9.492C55.8579 9.492 57.9359 11.0595 57.9359 15.0673C57.9359 19.0751 55.7189 20.6426 53.4021 20.6426C53.0032 20.6426 50.9652 20.5409 50.0668 18.751V24H48.3107V9.90348H49.9474V11.3263H50.0086ZM49.9474 15.1103C49.9474 18.3026 51.7458 19.3818 53.084 19.3818C54.5008 19.3818 56.0785 18.3621 56.0785 15.0673C56.0785 12.4032 54.9799 10.7558 52.9835 10.7558C52.0828 10.7558 49.9474 11.2042 49.9474 15.1103Z" fill="#16171B"/>
<path d="M61.1918 9.90047V11.8946H61.2342C61.714 10.3692 63.1693 9.57414 64.5884 9.51461L65.1075 9.49501V10.7566C62.7507 10.8583 61.3709 11.7732 61.2122 14.3777C61.1926 14.5593 61.1926 14.7439 61.1926 14.9262V20.2364H59.4358V9.90047H61.1918Z" fill="#16171B"/>
<path fill-rule="evenodd" clip-rule="evenodd" d="M65.1823 15.0703C65.1823 12.3234 66.4812 9.49501 70.1762 9.49501C73.8704 9.49501 75.1701 12.3234 75.1701 15.0703C75.1701 17.8165 73.8704 20.6456 70.1769 20.6456C66.4819 20.6456 65.1823 17.8165 65.1823 15.0703ZM67.0396 15.0477C67.0396 19.2002 69.3979 19.3818 70.1762 19.3818L70.1769 19.381C70.9567 19.381 73.3128 19.1972 73.3128 15.0477C73.3128 10.8975 70.9567 10.7129 70.1762 10.7129C69.3956 10.7129 67.0396 10.8952 67.0396 15.0477Z" fill="#16171B"/>
<path d="M77.3674 9.89971V8.49797H77.3644C77.3644 6.70586 78.2228 5.91304 80.0408 5.91304C80.3139 5.91304 80.7127 5.94546 81.026 5.97093C81.1479 5.98084 81.2569 5.9897 81.3405 5.99519V7.25675C80.6767 7.21075 80.408 7.22369 80.2365 7.23195C80.1861 7.23438 80.144 7.23641 80.1028 7.23641C79.1432 7.23641 79.1235 8.23345 79.1235 8.65925V9.89971H81.3405V11.162H79.1235V20.2356H77.3674V11.1613H75.4905V9.89971H77.3674Z" fill="#16171B"/>
<path d="M82.9522 9.90047H84.7083L84.7091 20.2364H82.9522V9.90047Z" fill="#16171B"/>
<path d="M87.5472 5.99594H89.304V20.2364H87.5472V5.99594Z" fill="#16171B"/>
<path fill-rule="evenodd" clip-rule="evenodd" d="M93.0595 15.4765C93.0595 17.246 93.9571 19.3818 96.2746 19.3818H96.2769C97.9748 19.3818 98.8732 18.3848 99.0931 17.246H100.772C100.513 18.7088 99.4528 20.6426 96.3388 20.6426C91.3056 20.6426 91.2052 16.047 91.2052 15.1095C91.2052 13.6867 91.4651 9.49501 96.1575 9.49501C100.211 9.49501 100.749 12.7296 100.85 14.9678C100.85 15.0488 100.855 15.1355 100.86 15.2222C100.865 15.3088 100.87 15.3955 100.87 15.4765H93.0595ZM99.01 14.215C98.9488 12.8321 98.4909 10.7558 96.1938 10.7558H96.196C93.5975 10.7558 93.0595 12.9142 93.0595 14.215H99.01Z" fill="#16171B"/>
</svg>
