<svg width="232" height="40" viewBox="0 0 232 40" fill="none" xmlns="http://www.w3.org/2000/svg">
<path d="M70.8233 24.8176C70.8233 27.8543 67.9957 30.0532 64.0169 30.0532H54.6973V11.2051H63.7025C67.5769 11.2051 70.2997 13.2993 70.2997 16.2313C70.2997 18.2208 69.2525 19.4773 67.6817 20.2103C69.3573 20.8386 70.8233 22.514 70.8233 24.8176ZM58.7813 14.6606V18.7444H63.5981C65.0641 18.7444 66.0065 17.9066 66.0065 16.7548C66.0065 15.603 64.9593 14.6606 63.5981 14.6606H58.7813ZM64.0169 26.5978C65.5877 26.5978 66.7393 25.6554 66.7393 24.2941C66.7393 22.9328 65.6921 21.9904 64.0169 21.9904H58.7813V26.5978H64.0169Z" fill="white"/>
<path d="M86.2159 29.9485L79.7239 22.514H78.6767V29.9485H74.4883V11.2051H78.6767V18.4302H79.7239L86.0067 11.2051H90.9279L83.0747 20.2103L91.6611 29.9485H86.2159Z" fill="white"/>
<path d="M91.6602 20.6289C91.6602 14.9744 95.8486 10.8906 101.713 10.8906C107.577 10.8906 111.765 14.9744 111.765 20.6289C111.765 26.2833 107.577 30.3671 101.713 30.3671C95.8486 30.3671 91.6602 26.2833 91.6602 20.6289ZM107.367 20.6289C107.367 17.0687 105.063 14.6603 101.713 14.6603C98.3618 14.6603 96.0582 17.0687 96.0582 20.6289C96.0582 24.1891 98.3618 26.5975 101.713 26.5975C105.063 26.5975 107.367 24.1891 107.367 20.6289Z" fill="white"/>
<path d="M127.786 11.2051H131.975V29.9485H127.786V22.4093H119.409V29.9485H115.221V11.2051H119.409V18.6396H127.786V11.2051Z" fill="white"/>
<path d="M140.98 29.9485V14.9747H134.488V11.2051H151.556V14.9747H145.064V29.9485H140.98Z" fill="white"/>
<path d="M169.567 19.477V29.9482H166.53L165.692 27.0163C164.75 28.587 162.761 30.3671 159.724 30.3671C155.954 30.3671 153.231 27.854 153.231 24.3985C153.231 20.943 155.954 18.5346 161.504 18.5346H165.588C165.378 16.1262 164.122 14.4509 161.818 14.4509C159.933 14.4509 158.677 15.498 158.048 16.6498L154.279 16.0215C155.221 12.7755 158.467 10.8906 162.027 10.8906C166.635 10.8906 169.567 14.032 169.567 19.477ZM165.483 21.7807H161.609C158.467 21.7807 157.42 22.8278 157.42 24.1891C157.42 25.7597 158.677 26.8069 160.771 26.8069C163.493 26.8069 165.483 24.8173 165.483 21.7807Z" fill="white"/>
<path d="M185.691 29.9485L179.199 22.514H178.152V29.9485H173.964V11.2051H178.152V18.4302H179.199L185.482 11.2051H190.403L182.55 20.2103L191.137 29.9485H185.691Z" fill="white"/>
<path d="M198.677 29.9485V14.9747H192.185V11.2051H209.253V14.9747H202.761V29.9485H198.677Z" fill="white"/>
<path d="M230.194 21.7807H215.116C215.535 24.7126 217.629 26.5975 220.77 26.5975C222.969 26.5975 224.645 25.655 225.587 24.2938L229.461 24.9221C228.1 28.4823 224.435 30.3671 220.456 30.3671C214.801 30.3671 210.718 26.2833 210.718 20.6289C210.718 14.9744 214.801 10.8906 220.456 10.8906C226.11 10.8906 230.194 14.9744 230.194 20.4194C230.299 20.943 230.194 21.3619 230.194 21.7807ZM215.43 18.5346H225.796C225.063 16.2309 223.179 14.5555 220.561 14.5555C218.047 14.4509 216.058 16.1262 215.43 18.5346Z" fill="white"/>
<path fill-rule="evenodd" clip-rule="evenodd" d="M4.10572 2.81178C1.29395 5.62356 1.29395 10.149 1.29395 19.2V20.8C1.29395 29.851 1.29395 34.3764 4.10572 37.1882C6.91748 40 11.443 40 20.494 40H22.094C31.1449 40 35.6704 40 38.4822 37.1882C41.2938 34.3764 41.2938 29.851 41.2938 20.8V19.2C41.2938 10.149 41.2938 5.62356 38.4822 2.81178C35.6704 0 31.1449 0 22.094 0H20.494C11.443 0 6.91748 0 4.10572 2.81178ZM8.044 12.1668C8.26068 22.5668 13.4606 28.8167 22.5773 28.8167H23.094V22.8667C26.444 23.2 28.9772 25.6501 29.9939 28.8167H34.7274C33.4274 24.0834 30.0105 21.4667 27.8772 20.4667C30.0105 19.2334 33.0105 16.2334 33.7272 12.1668H29.4271C28.4937 15.4668 25.7274 18.4667 23.094 18.75V12.1668H18.7939V23.7C16.1273 23.0334 12.7607 19.8001 12.6107 12.1668H8.044Z" fill="white"/>
</svg>
