<svg width="345" height="60" viewBox="0 0 345 60" fill="none" xmlns="http://www.w3.org/2000/svg">
<path fill-rule="evenodd" clip-rule="evenodd" d="M74.9251 0.716762C78.1141 0.716768 81.1661 1.09079 84.0811 1.83882C85.4783 2.19435 86.7996 2.64314 88.0449 3.18452H97.5819V11.138C99.4661 8.25807 101.247 6.18387 102.926 4.91528C105.941 2.65243 109.761 1.52092 114.385 1.52092C120.175 1.52092 124.903 3.04674 128.568 6.09812C132.268 9.11528 134.118 14.138 134.118 21.1666L134.058 58.9527H119.053L119.113 24.818C119.113 21.8696 118.719 19.6067 117.931 18.0295C116.492 15.1495 113.752 13.7094 109.709 13.7094C104.742 13.7094 101.333 15.818 99.4832 20.0351C99.417 20.1888 99.3534 20.3456 99.2918 20.5052L99.2574 39.7445V58.9527H83.4164L83.4725 51.4558C82.5848 53.0434 81.4424 54.4576 80.045 55.6983C78.5003 57.0448 76.6441 58.1046 74.4765 58.8775C72.309 59.6256 69.8049 59.9996 66.9647 59.9996C63.3022 59.9996 60.0383 59.3639 57.1732 58.0922C54.308 56.7955 52.0407 54.8879 50.3714 52.3695C48.727 49.8261 47.9049 46.6595 47.9049 42.8694C47.9049 39.6777 48.4903 36.9971 49.6613 34.8278C50.8323 32.6585 52.4269 30.913 54.445 29.5914C56.463 28.2699 58.7552 27.2726 61.3214 26.5993C63.9125 25.9261 66.6283 25.4522 69.4686 25.1779C72.8071 24.8289 75.498 24.5046 77.541 24.2054C79.584 23.8813 81.0664 23.4076 81.9883 22.7843C82.9101 22.1609 83.3712 21.2383 83.3712 20.0165V19.792C83.3712 17.4233 82.6237 15.5905 81.1288 14.2938C79.6589 12.9973 77.566 12.349 74.8503 12.349C71.985 12.349 69.7053 12.9847 68.0111 14.2565C66.3169 15.5032 65.3161 16.919 64.768 18.814H55.7965L42.2905 42.8905C37.9959 50.5572 34.596 55.3058 32.0907 57.136C29.5855 58.9908 24.575 59.9182 17.0595 59.9183C15.5485 59.9183 14.3354 59.9059 13.4208 59.881C12.5062 59.881 9.52653 59.6785 7.70823 59.497V48.863L9.8556 48.9374C11.5257 48.9868 13.1165 48.9495 14.6276 48.8259C16.1385 48.7022 17.4109 48.4178 18.4447 47.9727C19.4388 47.5523 20.3536 46.6743 21.1887 45.3389C22.0634 44.0035 22.4214 43.1873 22.2624 42.8905L0 3.12196H18.9085L33.1047 32.9482L46.5255 3.12196H62.0678C62.314 3.0154 62.5633 2.9115 62.8163 2.81132C66.3043 1.41494 70.3407 0.716762 74.9251 0.716762ZM83.4637 32.2966C82.967 32.6159 82.2885 32.9113 81.4278 33.1821C80.5807 33.4314 79.6214 33.6683 78.5501 33.8927C77.4787 34.0922 76.4073 34.2792 75.336 34.4537C74.2647 34.6033 73.293 34.7405 72.421 34.8652C70.5524 35.1395 68.9206 35.5759 67.5253 36.1742C66.1301 36.7727 65.0462 37.5832 64.2738 38.6055C63.5015 39.6028 63.1152 40.8497 63.1152 42.3457C63.1153 44.5151 63.9002 46.1733 65.4698 47.3202C67.0643 48.4423 69.0825 49.0033 71.5241 49.0033C73.8661 49.0033 75.9341 48.5419 77.7279 47.6194C79.5217 46.6719 80.9294 45.4003 81.9509 43.8045C82.8681 42.3716 83.3732 40.7677 83.4669 38.993L83.4637 32.2966Z" fill="white"/>
<path fill-rule="evenodd" clip-rule="evenodd" d="M252.308 0.341797C255.499 0.341802 258.552 0.715698 261.469 1.4635C262.67 1.7688 263.815 2.14283 264.903 2.58521H278.833V10.7598C280.649 7.84646 282.363 5.77279 283.974 4.53889C286.819 2.34528 290.503 1.24855 295.027 1.24855C299.311 1.24857 302.774 2.19108 305.413 4.07621C307.537 5.82423 309.149 8.06929 310.245 10.8112C312.164 7.52089 314.547 5.10451 317.391 3.56214C320.408 2.01977 323.766 1.24855 327.468 1.24855C329.936 1.24856 332.37 1.72845 334.769 2.68817C337.168 3.64789 339.345 5.32721 341.298 7.72646C342.875 9.68011 343.937 12.0794 344.486 14.9242C344.829 16.8093 345 19.5684 345 23.2016L344.897 58.9527H329.885V22.8417C329.885 20.7167 329.542 18.9687 328.857 17.5977C327.554 14.9928 325.155 13.6903 321.659 13.6903C317.614 13.6903 314.821 15.3698 313.278 18.7288C312.49 20.5111 312.096 22.6532 312.096 25.1553V58.9527H297.341V25.1553C297.341 21.8306 296.998 19.4142 296.313 17.9062C295.079 15.1984 292.662 13.8447 289.063 13.8446C284.882 13.8446 282.071 15.1984 280.632 17.9062C279.844 19.4485 279.45 21.745 279.45 24.7954V58.9527H261.581V50.5576H261.132C260.21 52.3523 258.976 53.9353 257.43 55.3063C255.886 56.6524 254.028 57.7118 251.86 58.4845C249.691 59.2323 247.186 59.6062 244.344 59.6062C240.68 59.6062 237.414 58.9706 234.548 57.6993C231.681 56.4031 229.413 54.4962 227.742 51.9786C227.075 50.9465 226.542 49.8118 226.146 48.5745C225.542 49.4286 224.853 50.2862 224.078 51.1468C219.28 56.5965 212.562 59.3213 203.925 59.3213C196.795 59.3212 190.506 57.0248 185.056 52.4321C185.022 52.4031 184.94 52.3256 184.905 52.2964V58.9527H178.373C171.381 58.9527 166.514 58.3333 163.977 55.6942C162.332 54.0147 161.509 51.4269 161.509 47.9309V13.4333H153.695V0.528748H185.108V8.75478C190.043 3.57925 196.435 0.99144 204.284 0.99143C208.946 0.99143 213.145 1.86551 216.881 3.61353C220.616 5.36155 223.701 8.12074 226.135 11.8909C226.811 12.9155 227.413 13.9906 227.943 15.1161C228.88 12.5863 230.216 10.0708 231.706 8.34348C233.9 5.776 236.729 3.80659 240.194 2.43565C243.683 1.03971 247.721 0.341797 252.308 0.341797ZM260.871 31.8997C260.372 32.2237 259.687 32.5228 258.814 32.797C257.967 33.0463 257.007 33.2831 255.935 33.5075C254.863 33.7069 253.791 33.8939 252.719 34.0683C251.648 34.2179 250.675 34.355 249.803 34.4796C247.934 34.7539 246.301 35.1901 244.905 35.7883C243.509 36.3865 242.425 37.1967 241.652 38.2186C240.879 39.2157 240.493 40.4621 240.493 41.9577C240.493 44.1264 241.278 45.7841 242.848 46.9307C244.444 48.0524 246.463 48.6133 248.906 48.6133C251.249 48.6133 253.317 48.1521 255.112 47.2299C256.907 46.2826 258.316 45.0114 259.338 43.4161C260.36 41.8207 260.871 40.0135 260.871 37.9945V31.8997ZM175.905 43.3041C175.905 45.6005 176.299 46.7828 176.882 47.3654C177.414 47.8668 178.821 48.1817 181.336 48.2321C178.367 43.7289 176.882 37.657 176.882 30.0163C176.882 23.0326 178.605 17.7665 181.4 13.4333H175.905V43.3041ZM192.511 34.5638C192.717 40.1848 193.608 43.075 196.933 45.3371C198.955 46.7424 201.388 47.445 204.233 47.445C207.249 47.445 209.7 46.5882 211.585 44.8744C212.613 43.949 213.522 42.6636 214.31 41.0185H225.318C225.469 38.5193 226.02 36.3679 226.968 34.5638H192.511ZM252.233 11.9703C249.366 11.9703 247.086 12.6059 245.391 13.8772C243.695 15.1236 243.084 16.7317 242.535 18.6262H229.306C229.785 20.1582 230.151 21.769 230.402 23.4587C230.647 25.1276 230.797 27.2732 230.854 29.8955C231.164 29.6547 231.485 29.4252 231.818 29.2074C233.837 27.8863 236.131 26.8892 238.698 26.2162C241.29 25.5432 244.007 25.0695 246.849 24.7954C250.189 24.4464 252.882 24.1223 254.926 23.8232C256.97 23.4991 258.453 23.0256 259.375 22.4024C260.297 21.7792 260.759 20.8569 260.759 19.6355V19.4112C260.759 17.0432 260.011 15.2109 258.516 13.9146C257.045 12.6185 254.95 11.9703 252.233 11.9703ZM204.284 13.0734C200.891 13.0734 198.252 14.136 196.367 16.261C194.516 18.386 193.351 21.2651 192.871 24.8981H215.647C215.407 21.0251 214.224 18.0946 212.099 16.1067C210.008 14.0845 207.403 13.0734 204.284 13.0734Z" fill="white"/>
</svg>
