<svg width="27" height="25" viewBox="0 0 27 25" >
<g clip-path="url(#clip0_283_118)">
<path d="M0.921875 0C0.921875 3.33593 2.24706 6.53522 4.60592 8.89406C6.96478 11.253 10.1641 12.5781 13.5 12.5781C16.8359 12.5781 20.0352 11.253 22.3941 8.89406C24.753 6.53523 26.0781 3.33593 26.0781 1.89924e-06L17.6484 6.26394e-07C17.6484 1.10023 17.2113 2.15541 16.4334 2.93338C15.6554 3.71137 14.6002 4.14843 13.5 4.14843C12.3998 4.14843 11.3446 3.71137 10.5666 2.93338C9.78867 2.15541 9.35156 1.10023 9.35156 0H0.921875Z" />
<path d="M13.5 25C15.9378 25 17.9141 23.0238 17.9141 20.5859C17.9141 18.1481 15.9378 16.1719 13.5 16.1719C11.0622 16.1719 9.08594 18.1481 9.08594 20.5859C9.08594 23.0238 11.0622 25 13.5 25Z"/>
</g>
<defs>
<clipPath id="clip0_283_118">
<rect width="27" height="25" />
</clipPath>
</defs>
</svg>
