<svg width="230" height="230" viewBox="0 0 230 230"  xmlns="http://www.w3.org/2000/svg">
<g clip-path="url(#clip0_197_1517)">
<path d="M52.0195 103C80.1861 103 103.02 80.1665 103.02 52C103.02 23.8335 80.1861 1 52.0195 1C23.853 1 1.01953 23.8335 1.01953 52C1.01953 80.1665 23.853 103 52.0195 103Z" />
<path d="M28 79C42.9117 79 55 66.9117 55 52C55 37.0883 42.9117 25 28 25C13.0883 25 1 37.0883 1 52C1 66.9117 13.0883 79 28 79Z" />
<path d="M52 79C66.9117 79 79 66.9117 79 52C79 37.0883 66.9117 25 52 25C37.0883 25 25 37.0883 25 52C25 66.9117 37.0883 79 52 79Z" />
<path d="M76 79C90.9117 79 103 66.9117 103 52C103 37.0883 90.9117 25 76 25C61.0883 25 49 37.0883 49 52C49 66.9117 61.0883 79 76 79Z" />
<line x1="1" y1="51.5" x2="103" y2="51.5" />
</g>
<defs>
<clipPath id="clip0_197_1517">
<rect width="230" height="230"/>
</clipPath>
</defs>
</svg>
