<svg width="230" height="230" viewBox="0 0 230 230"  xmlns="http://www.w3.org/2000/svg">
<g clip-path="url(#clip0_197_1531)">
<path d="M52.0195 103.5C80.4622 103.5 103.52 80.4427 103.52 52C103.52 23.5573 80.4622 0.5 52.0195 0.5C23.5769 0.5 0.519531 23.5573 0.519531 52C0.519531 80.4427 23.5769 103.5 52.0195 103.5Z" />
<path d="M28 79.5C43.1878 79.5 55.5 67.1878 55.5 52C55.5 36.8122 43.1878 24.5 28 24.5C12.8122 24.5 0.5 36.8122 0.5 52C0.5 67.1878 12.8122 79.5 28 79.5Z" />
<path d="M20 71.5C30.7696 71.5 39.5 62.7696 39.5 52C39.5 41.2304 30.7696 32.5 20 32.5C9.23045 32.5 0.5 41.2304 0.5 52C0.5 62.7696 9.23045 71.5 20 71.5Z" />
<path d="M84 71.5C94.7696 71.5 103.5 62.7696 103.5 52C103.5 41.2304 94.7696 32.5 84 32.5C73.2304 32.5 64.5 41.2304 64.5 52C64.5 62.7696 73.2304 71.5 84 71.5Z" />
<path d="M52 79.5C67.1878 79.5 79.5 67.1878 79.5 52C79.5 36.8122 67.1878 24.5 52 24.5C36.8122 24.5 24.5 36.8122 24.5 52C24.5 67.1878 36.8122 79.5 52 79.5Z" />
<path d="M76 79.5C91.1878 79.5 103.5 67.1878 103.5 52C103.5 36.8122 91.1878 24.5 76 24.5C60.8122 24.5 48.5 36.8122 48.5 52C48.5 67.1878 60.8122 79.5 76 79.5Z" />
<line x1="1" y1="51.5" x2="103" y2="51.5" />
</g>
<defs>
<clipPath id="clip0_197_1531">
<rect width="230" height="230"/>
</clipPath>
</defs>
</svg>